HIERARCHY
ROOT Hips
{
  OFFSET 5.84602e-005 68.8428 3.50346
  CHANNELS 6 Xposition Yposition Zposition Zrotation Xrotation Yrotation
  JOINT Spine
  {
    OFFSET 0 8.597 -4.6522
    CHANNELS 3 Zrotation Xrotation Yrotation
    JOINT Spine1
    {
      OFFSET 0 7.8454 0.4098
      CHANNELS 3 Zrotation Xrotation Yrotation
      JOINT Spine2
      {
        OFFSET 0 9.7078 -2.1609
        CHANNELS 3 Zrotation Xrotation Yrotation
        JOINT Neck
        {
          OFFSET 0 21.8761 -0.4549
          CHANNELS 3 Zrotation Xrotation Yrotation
          JOINT Head
          {
            OFFSET 0 12.3537 3.3602
            CHANNELS 3 Zrotation Xrotation Yrotation
            End Site
            {
              OFFSET 0.0001 18.9506 0.5657
            }
          }
        }
        JOINT LeftShoulder
        {
          OFFSET 2.2086 21.1115 7.2329
          CHANNELS 3 Zrotation Xrotation Yrotation
          JOINT LeftArm
          {
            OFFSET 13.1193 3.0282 -4.8998
            CHANNELS 3 Zrotation Xrotation Yrotation
            JOINT LeftForeArm
            {
              OFFSET 27.4081 -0.0973053 -0.2375
              CHANNELS 3 Zrotation Xrotation Yrotation
              JOINT LeftHand
              {
                OFFSET 22.8641 0.0662994 -0.1369
                CHANNELS 3 Zrotation Xrotation Yrotation
                JOINT LeftHandIndex1
                {
                  OFFSET 8.8614 0.775009 2.4612
                  CHANNELS 3 Zrotation Xrotation Yrotation
                  JOINT LeftHandIndex2
                  {
                    OFFSET 3.3146 -0.808304 0.5841
                    CHANNELS 3 Zrotation Xrotation Yrotation
                    JOINT LeftHandIndex3
                    {
                      OFFSET 2.2628 -0.552002 0.3989
                      CHANNELS 3 Zrotation Xrotation Yrotation
                      End Site
                      {
                        OFFSET 1.6102 -0.4807 0.2612
                      }
                    }
                  }
                }
                JOINT LeftHandMiddle1
                {
                  OFFSET 8.9937 0.895004 0.2143
                  CHANNELS 3 Zrotation Xrotation Yrotation
                  JOINT LeftHandMiddle2
                  {
                    OFFSET 4.0984 0.0113983 -0.0242
                    CHANNELS 3 Zrotation Xrotation Yrotation
                    JOINT LeftHandMiddle3
                    {
                      OFFSET 2.2716 0.00689697 -0.0138001
                      CHANNELS 3 Zrotation Xrotation Yrotation
                      End Site
                      {
                        OFFSET 2.0404 -0.1441 0.0027
                      }
                    }
                  }
                }
                JOINT LeftHandRing1
                {
                  OFFSET 8.5234 0.597198 -2.0164
                  CHANNELS 3 Zrotation Xrotation Yrotation
                  JOINT LeftHandRing2
                  {
                    OFFSET 3.7188 -0.188293 -0.2328
                    CHANNELS 3 Zrotation Xrotation Yrotation
                    JOINT LeftHandRing3
                    {
                      OFFSET 2.1191 -0.106598 -0.1332
                      CHANNELS 3 Zrotation Xrotation Yrotation
                      End Site
                      {
                        OFFSET 1.8737 -0.2304 -0.0886
                      }
                    }
                  }
                }
                JOINT LeftHandPinky1
                {
                  OFFSET 7.9094 -0.601089 -3.4825
                  CHANNELS 3 Zrotation Xrotation Yrotation
                  JOINT LeftHandPinky2
                  {
                    OFFSET 2.2874 -0.477005 -0.6314
                    CHANNELS 3 Zrotation Xrotation Yrotation
                    JOINT LeftHandPinky3
                    {
                      OFFSET 1.6774 -0.349396 -0.4633
                      CHANNELS 3 Zrotation Xrotation Yrotation
                      End Site
                      {
                        OFFSET 1.4888 -0.4091 -0.3416
                      }
                    }
                  }
                }
                JOINT LeftHandThumb1
                {
                  OFFSET 1.833 -1.3875 1.3896
                  CHANNELS 3 Zrotation Xrotation Yrotation
                  JOINT LeftHandThumb2
                  {
                    OFFSET 3.4129 -1.121 2.5732
                    CHANNELS 3 Zrotation Xrotation Yrotation
                    JOINT LeftHandThumb3
                    {
                      OFFSET 2.2474 -0.804199 1.6192
                      CHANNELS 3 Zrotation Xrotation Yrotation
                      End Site
                      {
                        OFFSET 1.6527 -0.5689 1.1317
                      }
                    }
                  }
                }
              }
            }
          }
        }
        JOINT RightShoulder
        {
          OFFSET -2.2086 21.1115 7.2329
          CHANNELS 3 Zrotation Xrotation Yrotation
          JOINT RightArm
          {
            OFFSET -13.1216 3.0287 -4.9007
            CHANNELS 3 Zrotation Xrotation Yrotation
            JOINT RightForeArm
            {
              OFFSET -27.4081 -0.0973053 -0.2375
              CHANNELS 3 Zrotation Xrotation Yrotation
              JOINT RightHand
              {
                OFFSET -22.8641 0.0664063 -0.1369
                CHANNELS 3 Zrotation Xrotation Yrotation
                JOINT RightHandIndex1
                {
                  OFFSET -8.8614 0.774994 2.4612
                  CHANNELS 3 Zrotation Xrotation Yrotation
                  JOINT RightHandIndex2
                  {
                    OFFSET -3.3146 -0.808304 0.5841
                    CHANNELS 3 Zrotation Xrotation Yrotation
                    JOINT RightHandIndex3
                    {
                      OFFSET -2.2628 -0.552002 0.3989
                      CHANNELS 3 Zrotation Xrotation Yrotation
                      End Site
                      {
                        OFFSET -1.6102 -0.4807 0.2612
                      }
                    }
                  }
                }
                JOINT RightHandMiddle1
                {
                  OFFSET -8.9937 0.894989 0.2143
                  CHANNELS 3 Zrotation Xrotation Yrotation
                  JOINT RightHandMiddle2
                  {
                    OFFSET -4.0984 0.0113983 -0.0242
                    CHANNELS 3 Zrotation Xrotation Yrotation
                    JOINT RightHandMiddle3
                    {
                      OFFSET -2.2716 0.00691223 -0.0138001
                      CHANNELS 3 Zrotation Xrotation Yrotation
                      End Site
                      {
                        OFFSET -2.0404 -0.1441 0.0027
                      }
                    }
                  }
                }
                JOINT RightHandRing1
                {
                  OFFSET -8.5234 0.597198 -2.0164
                  CHANNELS 3 Zrotation Xrotation Yrotation
                  JOINT RightHandRing2
                  {
                    OFFSET -3.7188 -0.188309 -0.2328
                    CHANNELS 3 Zrotation Xrotation Yrotation
                    JOINT RightHandRing3
                    {
                      OFFSET -2.1191 -0.106598 -0.1332
                      CHANNELS 3 Zrotation Xrotation Yrotation
                      End Site
                      {
                        OFFSET -1.8737 -0.2304 -0.0886
                      }
                    }
                  }
                }
                JOINT RightHandPinky1
                {
                  OFFSET -7.9094 -0.601105 -3.4825
                  CHANNELS 3 Zrotation Xrotation Yrotation
                  JOINT RightHandPinky2
                  {
                    OFFSET -2.2874 -0.477005 -0.6314
                    CHANNELS 3 Zrotation Xrotation Yrotation
                    JOINT RightHandPinky3
                    {
                      OFFSET -1.6774 -0.349396 -0.4633
                      CHANNELS 3 Zrotation Xrotation Yrotation
                      End Site
                      {
                        OFFSET -1.4888 -0.4091 -0.3416
                      }
                    }
                  }
                }
                JOINT RightHandThumb1
                {
                  OFFSET -1.833 -1.38751 1.3896
                  CHANNELS 3 Zrotation Xrotation Yrotation
                  JOINT RightHandThumb2
                  {
                    OFFSET -3.41299 -1.12099 2.5732
                    CHANNELS 3 Zrotation Xrotation Yrotation
                    JOINT RightHandThumb3
                    {
                      OFFSET -2.24741 -0.804108 1.6192
                      CHANNELS 3 Zrotation Xrotation Yrotation
                      End Site
                      {
                        OFFSET -1.6527 -0.5689 1.1317
                      }
                    }
                  }
                }
              }
            }
          }
        }
      }
    }
  }
  JOINT RightUpLeg
  {
    OFFSET -9.1966 3.8861 -0.7581
    CHANNELS 3 Zrotation Xrotation Yrotation
    JOINT RightLeg
    {
      OFFSET -0.7359 -41.0265 0
      CHANNELS 3 Zrotation Xrotation Yrotation
      JOINT RightFoot
      {
        OFFSET 0 -40.2855 0
        CHANNELS 3 Zrotation Xrotation Yrotation
        JOINT RightToeBase
        {
          OFFSET 0 -5.6122 11.7359
          CHANNELS 3 Zrotation Xrotation Yrotation
          End Site
          {
            OFFSET 0 0 7.8731
          }
        }
      }
    }
  }
  JOINT LeftUpLeg
  {
    OFFSET 9.1965 3.8864 -0.7581
    CHANNELS 3 Zrotation Xrotation Yrotation
    JOINT LeftLeg
    {
      OFFSET 0.7359 -41.0268 0
      CHANNELS 3 Zrotation Xrotation Yrotation
      JOINT LeftFoot
      {
        OFFSET 0 -40.2855 0
        CHANNELS 3 Zrotation Xrotation Yrotation
        JOINT LeftToeBase
        {
          OFFSET 0 -5.6122 11.7359
          CHANNELS 3 Zrotation Xrotation Yrotation
          End Site
          {
            OFFSET 0 0 7.8731
          }
        }
      }
    }
  }
}
MOTION
Frames:	4
Frame Time:	0.0333333
-0.614531 18.144 -33.5271 -0.000773985 -29.1355 179.998 0.113284 0.662394 -0.292818 0.229978 1.32421 -0.587003 0.229978 1.32421 -0.587003 3.69323e-006 -22.1489 4.81117e-005 0.330472 0.124144 -1.41619e-007 -23.4479 26.9767 -23.6657 -44.1896 -6.46775 -19.1004 4.03448 -4.00373 -35.7106 -8.34178 1.74254 -7.11401 1.31092e-006 -2.60249e-007 -3.1651e-007 1.59028e-015 0 -3.18055e-015 2.78897e-007 -5.00007e-007 -6.29644e-007 1.31092e-006 -2.60249e-007 -3.1651e-007 -0.0145868 -9.254e-005 -2.99705e-006 2.78888e-007 -4.99927e-007 -6.29708e-007 1.31092e-006 -2.60249e-007 -3.1651e-007 -0.0187288 -0.00117515 5.36318e-005 2.78879e-007 -4.99905e-007 -6.29729e-007 1.31092e-006 -2.60249e-007 -3.1651e-007 -0.0122914 -0.00325309 0.000673359 2.78869e-007 -4.99944e-007 -6.29706e-007 1.31092e-006 -2.60249e-007 -3.1651e-007 1.59028e-015 0 -3.18055e-015 2.78897e-007 -5.00007e-007 -6.29644e-007 40.1772 6.15344 -25.8222 57.335 55.2976 -12.3187 75.3272 -43.6818 79.6746 43.7701 -45.3817 20.3392 8.90354e-007 -7.90441e-007 -1.17876e-006 -1.59028e-015 3.18055e-015 -1.59028e-015 8.90354e-007 -7.90441e-007 -1.17876e-006 8.90354e-007 -7.90441e-007 -1.17876e-006 0.015008 -9.26696e-005 -1.62055e-007 8.90396e-007 -7.90596e-007 -1.17865e-006 8.90354e-007 -7.90441e-007 -1.17876e-006 0.0189939 -0.00119284 -6.19253e-005 8.90397e-007 -7.9064e-007 -1.17864e-006 8.90354e-007 -7.90441e-007 -1.17876e-006 0.0122874 -0.0032475 -0.000680049 8.90361e-007 -7.90572e-007 -1.1787e-006 8.90354e-007 -7.90441e-007 -1.17876e-006 -1.59028e-015 3.18055e-015 -1.59028e-015 8.90354e-007 -7.90441e-007 -1.17876e-006 -70.5954 -35.7593 -83.3298 -129.672 31.9359 153.959 32.4763 46.4317 -26.7024 4.55165e-007 5.54485e-007 1.5445e-006 70.5237 -35.7484 83.2277 129.601 32.0179 -153.916 -32.1614 45.9409 26.4439 4.77083e-015 1.59028e-014 6.36111e-015 
-0.614568 18.175 -33.2594 -0.000774767 -29.1601 179.998 0.12113 0.827819 -0.292137 0.246519 1.655 -0.586116 0.246519 1.655 -0.586115 2.3875e-008 -21.8074 -3.80829e-005 0.330472 0.124147 -9.837e-007 -22.891 25.9157 -23.9838 -44.4923 -6.33259 -19.197 3.94329 -3.95031 -36.1024 -8.32177 1.58914 -6.80014 5.58347e-007 -1.00088e-006 -1.25853e-006 4.77083e-015 9.54166e-015 1.59028e-015 6.36111e-015 3.18055e-015 -0 5.58347e-007 -1.00088e-006 -1.25853e-006 -0.0146461 -8.93746e-005 -7.84019e-006 3.18055e-015 -6.36111e-015 3.18055e-015 5.58347e-007 -1.00088e-006 -1.25853e-006 -0.0187348 -0.00117991 6.58859e-005 1.02374e-006 2.42957e-007 3.19718e-007 5.58347e-007 -1.00088e-006 -1.25853e-006 -0.0122616 -0.00324646 0.000675583 -1.59028e-015 0 -3.18055e-015 5.58347e-007 -1.00088e-006 -1.25853e-006 4.77083e-015 9.54166e-015 1.59028e-015 6.36111e-015 3.18055e-015 -0 40.0352 6.25038 -25.0432 56.6542 55.3936 -11.5545 75.3272 -43.6818 79.6746 41.5568 -45.8954 18.9152 -1.48712e-006 -6.68172e-008 -2.96951e-006 5.96739e-007 8.33268e-007 4.15826e-006 8.90379e-007 -7.66451e-007 -1.18875e-006 -1.48712e-006 -6.68172e-008 -2.96951e-006 0.0150016 -8.79752e-005 2.30937e-006 8.90424e-007 -7.66607e-007 -1.18865e-006 -1.48712e-006 -6.68172e-008 -2.96951e-006 0.0189738 -0.0011902 -6.18167e-005 8.90425e-007 -7.66651e-007 -1.18863e-006 -1.48712e-006 -6.68172e-008 -2.96951e-006 0.0123033 -0.00326135 -0.000669655 8.90387e-007 -7.66584e-007 -1.18869e-006 -1.48712e-006 -6.68172e-008 -2.96951e-006 5.96739e-007 8.33268e-007 4.15826e-006 8.90379e-007 -7.66451e-007 -1.18875e-006 -70.8572 -36.2814 -83.5726 -129.906 31.8416 154.047 32.8577 46.5015 -26.8952 2.28352e-007 2.7719e-007 7.72018e-007 70.7852 -36.274 83.4728 129.841 31.921 -154.007 -32.5404 46.0099 26.6378 -4.77083e-015 0 -3.18055e-015 
-0.614603 18.2028 -33.0181 -0.000775548 -29.1847 179.998 0.128179 0.97708 -0.291487 0.261389 1.95359 -0.585286 0.261389 1.9536 -0.585287 -1.8178e-006 -21.4657 6.51292e-005 0.330472 0.124146 -5.88351e-008 -22.3986 24.9557 -24.2572 -44.7645 -6.21043 -19.2832 3.86153 -3.90167 -36.4551 -8.30311 1.4512 -6.51758 -2.79436e-007 5.00808e-007 6.28929e-007 -5.58872e-007 1.00162e-006 1.25786e-006 -2.79436e-007 5.00808e-007 6.28929e-007 -2.79436e-007 5.00808e-007 6.28929e-007 -0.0146062 -8.77895e-005 -4.05368e-007 -2.79427e-007 5.00727e-007 6.28993e-007 -2.79436e-007 5.00808e-007 6.28929e-007 -0.0187401 -0.00117311 5.53565e-005 -2.79418e-007 5.00706e-007 6.29014e-007 -2.79436e-007 5.00808e-007 6.28929e-007 -0.0122877 -0.00325153 0.000675136 -2.79408e-007 5.00744e-007 6.2899e-007 -2.79436e-007 5.00808e-007 6.28929e-007 -5.58872e-007 1.00162e-006 1.25786e-006 -2.79436e-007 5.00808e-007 6.28929e-007 39.9061 6.33567 -24.3407 56.038 55.4755 -10.8633 75.3272 -43.6818 79.6746 39.5245 -46.324 17.5928 8.90091e-007 -7.4456e-007 -1.1974e-006 -1.5047e-006 -8.82963e-009 -2.97758e-006 8.90092e-007 -7.4456e-007 -1.1974e-006 8.90091e-007 -7.4456e-007 -1.1974e-006 0.0149915 -9.47839e-005 -1.66029e-007 8.90139e-007 -7.44717e-007 -1.1973e-006 8.90091e-007 -7.4456e-007 -1.1974e-006 0.0189754 -0.00119061 -5.75058e-005 2.39079e-006 5.02497e-007 3.07962e-007 8.90091e-007 -7.4456e-007 -1.1974e-006 0.0122788 -0.00324731 -0.000678858 8.90101e-007 -7.44693e-007 -1.19734e-006 8.90091e-007 -7.4456e-007 -1.1974e-006 -1.5047e-006 -8.82963e-009 -2.97758e-006 8.90092e-007 -7.4456e-007 -1.1974e-006 -71.0965 -36.7508 -83.7944 -130.117 31.7565 154.126 33.202 46.5637 -27.0696 1.59028e-015 3.18055e-015 -0 71.0244 -36.7466 83.6968 130.057 31.8334 -154.088 -32.8825 46.0714 26.8133 2.61695e-006 8.01383e-007 -2.47284e-006 
-0.614638 18.2306 -32.7767 -0.000776331 -29.2093 179.998 0.135176 1.12663 -0.290459 0.276145 2.25251 -0.583745 0.276145 2.25253 -0.583745 -1.25944e-007 -21.1234 -8.39368e-006 0.330472 0.124143 8.39706e-008 -21.9142 23.9928 -24.5199 -45.0365 -6.08784 -19.3688 3.78006 -3.85251 -36.8077 -8.28375 1.31332 -6.23495 -2.79719e-007 5.0116e-007 6.28592e-007 -2.79719e-007 5.0116e-007 6.28592e-007 -2.79719e-007 5.0116e-007 6.28592e-007 -2.79719e-007 5.0116e-007 6.28592e-007 -0.0145812 -8.80372e-005 5.05047e-007 -2.7971e-007 5.0108e-007 6.28656e-007 -2.79719e-007 5.0116e-007 6.28592e-007 -0.0187186 -0.00117448 5.63198e-005 -2.79702e-007 5.01058e-007 6.28676e-007 -2.79719e-007 5.0116e-007 6.28592e-007 -0.0122758 -0.00324902 0.000675877 -2.79691e-007 5.01096e-007 6.28653e-007 -2.79719e-007 5.0116e-007 6.28592e-007 -2.79719e-007 5.0116e-007 6.28592e-007 -2.79719e-007 5.0116e-007 6.28592e-007 39.776 6.41973 -23.638 55.4187 55.5533 -10.169 75.3272 -43.6818 79.6746 37.457 -46.7206 16.2351 -8.89524e-007 7.224e-007 1.2057e-006 -1.0152e-030 -6.36111e-015 -9.14409e-015 -8.89524e-007 7.224e-007 1.2057e-006 -8.89524e-007 7.224e-007 1.2057e-006 0.0149966 -9.00042e-005 -3.4777e-006 -8.89573e-007 7.22559e-007 1.20561e-006 -8.89524e-007 7.224e-007 1.2057e-006 0.018992 -0.0011931 -5.98765e-005 -8.89575e-007 7.22604e-007 1.20559e-006 -8.89524e-007 7.224e-007 1.2057e-006 0.0122696 -0.00324131 -0.000667864 -8.89535e-007 7.22535e-007 1.20565e-006 -8.89524e-007 7.224e-007 1.2057e-006 -1.0152e-030 -6.36111e-015 -9.14409e-015 -8.89524e-007 7.224e-007 1.2057e-006 -71.3396 -37.2199 -84.0203 -130.327 31.671 154.203 33.5473 46.6254 -27.2451 -2.60364e-006 3.61666e-006 5.82062e-007 71.2674 -37.2189 83.9248 130.272 31.7455 -154.169 -33.2256 46.1324 26.9898 4.45192e-006 9.32035e-007 -8.89636e-007 
